{"asset":{"version":"2.0","generator":"babylon.js glTF exporter for Maya 2018 v20200617.6"},"scene":0,"scenes":[{"nodes":[0,1]}],"nodes":[{"skin":0,"mesh":0,"translation":[0.000405951723,0.8541217,-0.0293481722],"name":"poly"},{"children":[2,21,25],"translation":[0.00560142146,0.9050716,0.0117862718],"rotation":[0.707156,-0.00593796372,0.00347201247,0.7070241],"scale":[0.99999994,1.0,1.0],"name":"mixamorig:Hips"},{"children":[3],"translation":[0.0,0.07667434,-0.007877234],"rotation":[-0.115570627,0.0233738273,-0.0115277963,0.992957354],"scale":[1.0,0.99999994,1.0],"name":"mixamorig:Spine"},{"children":[4],"translation":[0.0,0.0899241939,0.0],"rotation":[-0.01305463,0.004849627,-0.00181456422,0.9999014],"name":"mixamorig:Spine1"},{"children":[5,7,14],"translation":[0.0,0.102770463,1.7763568E-17],"rotation":[-0.0130422181,0.004893329,-0.00179782079,0.9999013],"name":"mixamorig:Spine2"},{"children":[6],"translation":[0.0,0.115616806,1.07172058E-08],"rotation":[-0.09764054,-0.003377145,-0.0213524159,0.9949869],"scale":[1.0,1.0,0.99999994],"name":"mixamorig:Neck"},{"translation":[0.0,0.121672057,0.03294359],"rotation":[-0.161628321,-0.0299508963,0.07213677,0.9837558],"name":"mixamorig:Head"},{"children":[8],"translation":[0.03924519,0.08733692,-0.00184887287],"rotation":[-0.6067319,-0.375884742,0.5858975,-0.383811474],"scale":[0.99999994,1.0,1.0],"name":"mixamorig:LeftShoulder"},{"children":[9],"translation":[1.7763568E-17,0.0952081457,0.0],"rotation":[0.297104031,0.107984379,-0.0466591455,0.9475714],"name":"mixamorig:LeftArm"},{"children":[10],"translation":[-8.881784E-18,0.137112454,0.0],"rotation":[0.000345374952,-0.00446426775,0.0310265943,0.9995085],"scale":[1.0,1.0,0.99999994],"name":"mixamorig:LeftForeArm"},{"children":[11],"translation":[0.0,0.196137235,0.0],"rotation":[0.0591302626,0.0208827723,0.007799313,0.9980014],"name":"mixamorig:LeftHand"},{"children":[12],"translation":[-1.7763568E-17,0.128754646,3.5527136E-17],"rotation":[0.4328057,-0.496121347,-0.528548539,0.5358911],"name":"mixamorig:LeftHandIndex1"},{"children":[13],"translation":[3.5527136E-17,0.01271766,0.0],"rotation":[-0.0179895684,-0.05247641,-0.7927691,0.6069925],"scale":[1.0,0.99999994,1.0],"name":"mixamorig:LeftHandIndex2"},{"translation":[0.00233626482,0.00957329851,-0.00134475785],"rotation":[-0.06301661,-0.09236627,-0.797104359,0.5933987],"scale":[0.99999994,1.0,1.0],"name":"mixamorig:LeftHandIndex3"},{"children":[15],"translation":[-0.03924519,0.0875517353,-0.0039397846],"rotation":[0.463290364,-0.447054476,0.703597367,0.300757557],"scale":[0.99999994,1.0,0.99999994],"name":"mixamorig:RightShoulder"},{"children":[16],"translation":[1.7763568E-17,0.0952081457,1.42108544E-16],"rotation":[0.29946,0.212157875,0.06672349,0.927825868],"scale":[0.99999994,1.0,1.0],"name":"mixamorig:RightArm"},{"children":[17],"translation":[1.7763568E-17,0.137327537,0.0],"rotation":[0.00048310557,0.0044777235,-0.003082275,0.9999851],"scale":[0.99999994,0.99999994,0.99999994],"name":"mixamorig:RightForeArm"},{"children":[18],"translation":[0.0,0.196147785,0.0],"rotation":[0.19374761,-0.169748649,0.0302158222,0.9657817],"scale":[0.99999994,1.0,0.99999994],"name":"mixamorig:RightHand"},{"children":[19],"translation":[0.0,0.09679819,-1.7763568E-17],"rotation":[0.126558229,-0.723909438,-0.671317637,-0.0962849259],"name":"mixamorig:RightHandIndex1"},{"children":[20],"translation":[0.0,0.02066507,0.0],"rotation":[-0.298585474,-0.01077475,-0.0230318587,0.954044044],"scale":[1.0,0.99999994,1.0],"name":"mixamorig:RightHandIndex2"},{"translation":[0.00132220681,0.00350529631,-0.0354582],"rotation":[-0.708372831,-0.15834412,0.136166677,0.674235642],"scale":[1.0,1.0,0.99999994],"name":"mixamorig:RightHandIndex3"},{"children":[22],"translation":[0.0827507451,-0.0425993353,0.00729042571],"rotation":[0.08949392,-0.00107192609,0.994360745,-0.0568890758],"scale":[0.99999994,0.99999994,1.0],"name":"mixamorig:LeftUpLeg"},{"children":[23],"translation":[0.0,0.43370077,0.0],"rotation":[-0.112732969,-0.07472121,0.00139241072,0.9908109],"name":"mixamorig:LeftLeg"},{"children":[24],"translation":[0.0,0.3797234,-8.881784E-18],"rotation":[0.222631276,0.0224789474,-0.155401066,0.962174833],"name":"mixamorig:LeftFoot"},{"translation":[-4.440892E-18,0.12960577,1.7763568E-17],"rotation":[0.2002618,0.0139089813,-0.009149703,0.979600966],"scale":[0.99999994,1.0,0.99999994],"name":"mixamorig:LeftToeBase"},{"children":[26],"translation":[-0.0827507451,-0.0425993353,-0.02181733],"rotation":[-0.253644764,-0.00165272038,0.9599148,0.119269282],"scale":[1.0,0.99999994,1.0],"name":"mixamorig:RightUpLeg"},{"children":[27],"translation":[8.881784E-18,0.431861073,0.0],"rotation":[-0.08996439,0.0718370453,-0.0119137391,0.9932794],"scale":[1.0,1.0,0.99999994],"name":"mixamorig:RightLeg"},{"children":[28],"translation":[8.881784E-18,0.379732966,0.0],"rotation":[0.148297966,-0.101193316,0.105274513,0.978102744],"scale":[0.99999994,0.99999994,1.0],"name":"mixamorig:RightFoot"},{"translation":[0.0,0.129367515,0.0],"rotation":[0.185683832,-0.0165228974,0.0111571876,0.982407331],"scale":[1.0,1.0,0.99999994],"name":"mixamorig:RightToeBase"}],"meshes":[{"primitives":[{"attributes":{"POSITION":1,"NORMAL":2,"JOINTS_0":3,"WEIGHTS_0":4},"indices":0,"material":0}],"name":"poly"}],"accessors":[{"bufferView":0,"componentType":5123,"count":196149,"type":"SCALAR","name":"accessorIndices"},{"bufferView":1,"componentType":5126,"count":30125,"max":[0.353395879,0.4063742,0.767083049],"min":[-0.307252049,-0.06137691,-0.9672299],"type":"VEC3","name":"accessorPositions"},{"bufferView":1,"byteOffset":361500,"componentType":5126,"count":30125,"type":"VEC3","name":"accessorNormals"},{"bufferView":2,"componentType":5123,"count":30125,"type":"VEC4","name":"accessorJoints"},{"bufferView":3,"componentType":5126,"count":30125,"type":"VEC4","name":"accessorWeights"},{"bufferView":4,"componentType":5126,"count":28,"type":"MAT4","name":"accessorInverseBindMatrices"},{"bufferView":5,"componentType":5126,"count":2,"max":[7.66666651],"min":[0.0],"type":"SCALAR","name":"accessorAnimationInput"},{"bufferView":6,"componentType":5126,"count":2,"type":"VEC3","name":"accessorAnimationPositions"},{"bufferView":5,"byteOffset":8,"componentType":5126,"count":231,"max":[7.66666651],"min":[0.0],"type":"SCALAR","name":"accessorAnimationInput"},{"bufferView":6,"byteOffset":24,"componentType":5126,"count":231,"type":"VEC3","name":"accessorAnimationPositions"},{"bufferView":7,"componentType":5126,"count":231,"type":"VEC4","name":"accessorAnimationRotations"},{"bufferView":6,"byteOffset":2796,"componentType":5126,"count":231,"type":"VEC3","name":"accessorAnimationScales"},{"bufferView":5,"byteOffset":932,"componentType":5126,"count":231,"max":[7.66666651],"min":[0.0],"type":"SCALAR","name":"accessorAnimationInput"},{"bufferView":6,"byteOffset":5568,"componentType":5126,"count":231,"type":"VEC3","name":"accessorAnimationPositions"},{"bufferView":7,"byteOffset":3696,"componentType":5126,"count":231,"type":"VEC4","name":"accessorAnimationRotations"},{"bufferView":6,"byteOffset":8340,"componentType":5126,"count":231,"type":"VEC3","name":"accessorAnimationScales"},{"bufferView":5,"byteOffset":1856,"componentType":5126,"count":231,"max":[7.66666651],"min":[0.0],"type":"SCALAR","name":"accessorAnimationInput"},{"bufferView":6,"byteOffset":11112,"componentType":5126,"count":231,"type":"VEC3","name":"accessorAnimationPositions"},{"bufferView":7,"byteOffset":7392,"componentType":5126,"count":231,"type":"VEC4","name":"accessorAnimationRotations"},{"bufferView":6,"byteOffset":13884,"componentType":5126,"count":231,"type":"VEC3","name":"accessorAnimationScales"},{"bufferView":5,"byteOffset":2780,"componentType":5126,"count":231,"max":[7.66666651],"min":[0.0],"type":"SCALAR","name":"accessorAnimationInput"},{"bufferView":6,"byteOffset":16656,"componentType":5126,"count":231,"type":"VEC3","name":"accessorAnimationPositions"},{"bufferView":7,"byteOffset":11088,"componentType":5126,"count":231,"type":"VEC4","name":"accessorAnimationRotations"},{"bufferView":6,"byteOffset":19428,"componentType":5126,"count":231,"type":"VEC3","name":"accessorAnimationScales"},{"bufferView":5,"byteOffset":3704,"componentType":5126,"count":231,"max":[7.66666651],"min":[0.0],"type":"SCALAR","name":"accessorAnimationInput"},{"bufferView":6,"byteOffset":22200,"componentType":5126,"count":231,"type":"VEC3","name":"accessorAnimationPositions"},{"bufferView":7,"byteOffset":14784,"componentType":5126,"count":231,"type":"VEC4","name":"accessorAnimationRotations"},{"bufferView":6,"byteOffset":24972,"componentType":5126,"count":231,"type":"VEC3","name":"accessorAnimationScales"},{"bufferView":5,"byteOffset":4628,"componentType":5126,"count":231,"max":[7.66666651],"min":[0.0],"type":"SCALAR","name":"accessorAnimationInput"},{"bufferView":6,"byteOffset":27744,"componentType":5126,"count":231,"type":"VEC3","name":"accessorAnimationPositions"},{"bufferView":7,"byteOffset":18480,"componentType":5126,"count":231,"type":"VEC4","name":"accessorAnimationRotations"},{"bufferView":6,"byteOffset":30516,"componentType":5126,"count":231,"type":"VEC3","name":"accessorAnimationScales"},{"bufferView":5,"byteOffset":5552,"componentType":5126,"count":231,"max":[7.66666651],"min":[0.0],"type":"SCALAR","name":"accessorAnimationInput"},{"bufferView":6,"byteOffset":33288,"componentType":5126,"count":231,"type":"VEC3","name":"accessorAnimationPositions"},{"bufferView":7,"byteOffset":22176,"componentType":5126,"count":231,"type":"VEC4","name":"accessorAnimationRotations"},{"bufferView":6,"byteOffset":36060,"componentType":5126,"count":231,"type":"VEC3","name":"accessorAnimationScales"},{"bufferView":5,"byteOffset":6476,"componentType":5126,"count":231,"max":[7.66666651],"min":[0.0],"type":"SCALAR","name":"accessorAnimationInput"},{"bufferView":6,"byteOffset":38832,"componentType":5126,"count":231,"type":"VEC3","name":"accessorAnimationPositions"},{"bufferView":7,"byteOffset":25872,"componentType":5126,"count":231,"type":"VEC4","name":"accessorAnimationRotations"},{"bufferView":6,"byteOffset":41604,"componentType":5126,"count":231,"type":"VEC3","name":"accessorAnimationScales"},{"bufferView":5,"byteOffset":7400,"componentType":5126,"count":231,"max":[7.66666651],"min":[0.0],"type":"SCALAR","name":"accessorAnimationInput"},{"bufferView":6,"byteOffset":44376,"componentType":5126,"count":231,"type":"VEC3","name":"accessorAnimationPositions"},{"bufferView":7,"byteOffset":29568,"componentType":5126,"count":231,"type":"VEC4","name":"accessorAnimationRotations"},{"bufferView":6,"byteOffset":47148,"componentType":5126,"count":231,"type":"VEC3","name":"accessorAnimationScales"},{"bufferView":5,"byteOffset":8324,"componentType":5126,"count":231,"max":[7.66666651],"min":[0.0],"type":"SCALAR","name":"accessorAnimationInput"},{"bufferView":6,"byteOffset":49920,"componentType":5126,"count":231,"type":"VEC3","name":"accessorAnimationPositions"},{"bufferView":7,"byteOffset":33264,"componentType":5126,"count":231,"type":"VEC4","name":"accessorAnimationRotations"},{"bufferView":6,"byteOffset":52692,"componentType":5126,"count":231,"type":"VEC3","name":"accessorAnimationScales"},{"bufferView":5,"byteOffset":9248,"componentType":5126,"count":231,"max":[7.66666651],"min":[0.0],"type":"SCALAR","name":"accessorAnimationInput"},{"bufferView":6,"byteOffset":55464,"componentType":5126,"count":231,"type":"VEC3","name":"accessorAnimationPositions"},{"bufferView":7,"byteOffset":36960,"componentType":5126,"count":231,"type":"VEC4","name":"accessorAnimationRotations"},{"bufferView":6,"byteOffset":58236,"componentType":5126,"count":231,"type":"VEC3","name":"accessorAnimationScales"},{"bufferView":5,"byteOffset":10172,"componentType":5126,"count":231,"max":[7.66666651],"min":[0.0],"type":"SCALAR","name":"accessorAnimationInput"},{"bufferView":6,"byteOffset":61008,"componentType":5126,"count":231,"type":"VEC3","name":"accessorAnimationPositions"},{"bufferView":7,"byteOffset":40656,"componentType":5126,"count":231,"type":"VEC4","name":"accessorAnimationRotations"},{"bufferView":6,"byteOffset":63780,"componentType":5126,"count":231,"type":"VEC3","name":"accessorAnimationScales"},{"bufferView":5,"byteOffset":11096,"componentType":5126,"count":199,"max":[7.66666651],"min":[0.0],"type":"SCALAR","name":"accessorAnimationInput"},{"bufferView":6,"byteOffset":66552,"componentType":5126,"count":199,"type":"VEC3","name":"accessorAnimationPositions"},{"bufferView":7,"byteOffset":44352,"componentType":5126,"count":199,"type":"VEC4","name":"accessorAnimationRotations"},{"bufferView":6,"byteOffset":68940,"componentType":5126,"count":199,"type":"VEC3","name":"accessorAnimationScales"},{"bufferView":5,"byteOffset":11892,"componentType":5126,"count":231,"max":[7.66666651],"min":[0.0],"type":"SCALAR","name":"accessorAnimationInput"},{"bufferView":6,"byteOffset":71328,"componentType":5126,"count":231,"type":"VEC3","name":"accessorAnimationPositions"},{"bufferView":7,"byteOffset":47536,"componentType":5126,"count":231,"type":"VEC4","name":"accessorAnimationRotations"},{"bufferView":6,"byteOffset":74100,"componentType":5126,"count":231,"type":"VEC3","name":"accessorAnimationScales"},{"bufferView":5,"byteOffset":12816,"componentType":5126,"count":231,"max":[7.66666651],"min":[0.0],"type":"SCALAR","name":"accessorAnimationInput"},{"bufferView":6,"byteOffset":76872,"componentType":5126,"count":231,"type":"VEC3","name":"accessorAnimationPositions"},{"bufferView":7,"byteOffset":51232,"componentType":5126,"count":231,"type":"VEC4","name":"accessorAnimationRotations"},{"bufferView":6,"byteOffset":79644,"componentType":5126,"count":231,"type":"VEC3","name":"accessorAnimationScales"},{"bufferView":5,"byteOffset":13740,"componentType":5126,"count":231,"max":[7.66666651],"min":[0.0],"type":"SCALAR","name":"accessorAnimationInput"},{"bufferView":6,"byteOffset":82416,"componentType":5126,"count":231,"type":"VEC3","name":"accessorAnimationPositions"},{"bufferView":7,"byteOffset":54928,"componentType":5126,"count":231,"type":"VEC4","name":"accessorAnimationRotations"},{"bufferView":6,"byteOffset":85188,"componentType":5126,"count":231,"type":"VEC3","name":"accessorAnimationScales"},{"bufferView":5,"byteOffset":14664,"componentType":5126,"count":231,"max":[7.66666651],"min":[0.0],"type":"SCALAR","name":"accessorAnimationInput"},{"bufferView":6,"byteOffset":87960,"componentType":5126,"count":231,"type":"VEC3","name":"accessorAnimationPositions"},{"bufferView":7,"byteOffset":58624,"componentType":5126,"count":231,"type":"VEC4","name":"accessorAnimationRotations"},{"bufferView":6,"byteOffset":90732,"componentType":5126,"count":231,"type":"VEC3","name":"accessorAnimationScales"},{"bufferView":5,"byteOffset":15588,"componentType":5126,"count":231,"max":[7.66666651],"min":[0.0],"type":"SCALAR","name":"accessorAnimationInput"},{"bufferView":6,"byteOffset":93504,"componentType":5126,"count":231,"type":"VEC3","name":"accessorAnimationPositions"},{"bufferView":7,"byteOffset":62320,"componentType":5126,"count":231,"type":"VEC4","name":"accessorAnimationRotations"},{"bufferView":6,"byteOffset":96276,"componentType":5126,"count":231,"type":"VEC3","name":"accessorAnimationScales"},{"bufferView":5,"byteOffset":16512,"componentType":5126,"count":231,"max":[7.66666651],"min":[0.0],"type":"SCALAR","name":"accessorAnimationInput"},{"bufferView":6,"byteOffset":99048,"componentType":5126,"count":231,"type":"VEC3","name":"accessorAnimationPositions"},{"bufferView":7,"byteOffset":66016,"componentType":5126,"count":231,"type":"VEC4","name":"accessorAnimationRotations"},{"bufferView":6,"byteOffset":101820,"componentType":5126,"count":231,"type":"VEC3","name":"accessorAnimationScales"},{"bufferView":5,"byteOffset":17436,"componentType":5126,"count":231,"max":[7.66666651],"min":[0.0],"type":"SCALAR","name":"accessorAnimationInput"},{"bufferView":6,"byteOffset":104592,"componentType":5126,"count":231,"type":"VEC3","name":"accessorAnimationPositions"},{"bufferView":7,"byteOffset":69712,"componentType":5126,"count":231,"type":"VEC4","name":"accessorAnimationRotations"},{"bufferView":6,"byteOffset":107364,"componentType":5126,"count":231,"type":"VEC3","name":"accessorAnimationScales"},{"bufferView":5,"byteOffset":18360,"componentType":5126,"count":231,"max":[7.66666651],"min":[0.0],"type":"SCALAR","name":"accessorAnimationInput"},{"bufferView":6,"byteOffset":110136,"componentType":5126,"count":231,"type":"VEC3","name":"accessorAnimationPositions"},{"bufferView":7,"byteOffset":73408,"componentType":5126,"count":231,"type":"VEC4","name":"accessorAnimationRotations"},{"bufferView":6,"byteOffset":112908,"componentType":5126,"count":231,"type":"VEC3","name":"accessorAnimationScales"},{"bufferView":5,"byteOffset":19284,"componentType":5126,"count":231,"max":[7.66666651],"min":[0.0],"type":"SCALAR","name":"accessorAnimationInput"},{"bufferView":6,"byteOffset":115680,"componentType":5126,"count":231,"type":"VEC3","name":"accessorAnimationPositions"},{"bufferView":7,"byteOffset":77104,"componentType":5126,"count":231,"type":"VEC4","name":"accessorAnimationRotations"},{"bufferView":6,"byteOffset":118452,"componentType":5126,"count":231,"type":"VEC3","name":"accessorAnimationScales"}],"bufferViews":[{"buffer":0,"byteLength":392300,"name":"bufferViewScalar"},{"buffer":0,"byteOffset":392300,"byteLength":723000,"byteStride":12,"name":"bufferViewFloatVec3"},{"buffer":0,"byteOffset":1115300,"byteLength":241000,"byteStride":8,"name":"bufferViewUnsignedShortVec4"},{"buffer":0,"byteOffset":1356300,"byteLength":482000,"byteStride":16,"name":"bufferViewFloatVec4"},{"buffer":0,"byteOffset":1838300,"byteLength":1792,"name":"bufferViewFloatMat4"},{"buffer":0,"byteOffset":1840092,"byteLength":20208,"name":"bufferViewAnimationFloatScalar"},{"buffer":0,"byteOffset":1860300,"byteLength":121224,"name":"bufferViewAnimationFloatVec3"},{"buffer":0,"byteOffset":1981524,"byteLength":80800,"name":"bufferViewAnimationFloatVec4"}],"buffers":[{"uri":"avatarVolando.bin","byteLength":2062324}],"materials":[{"pbrMetallicRoughness":{"baseColorFactor":[0.5,0.5,0.5,1.0],"metallicFactor":0.0,"roughnessFactor":0.450053632},"name":"lambert1"}],"animations":[{"channels":[{"sampler":0,"target":{"node":0,"path":"translation"}},{"sampler":1,"target":{"node":1,"path":"translation"}},{"sampler":2,"target":{"node":1,"path":"rotation"}},{"sampler":3,"target":{"node":1,"path":"scale"}},{"sampler":4,"target":{"node":2,"path":"translation"}},{"sampler":5,"target":{"node":2,"path":"rotation"}},{"sampler":6,"target":{"node":2,"path":"scale"}},{"sampler":7,"target":{"node":3,"path":"translation"}},{"sampler":8,"target":{"node":3,"path":"rotation"}},{"sampler":9,"target":{"node":3,"path":"scale"}},{"sampler":10,"target":{"node":4,"path":"translation"}},{"sampler":11,"target":{"node":4,"path":"rotation"}},{"sampler":12,"target":{"node":4,"path":"scale"}},{"sampler":13,"target":{"node":5,"path":"translation"}},{"sampler":14,"target":{"node":5,"path":"rotation"}},{"sampler":15,"target":{"node":5,"path":"scale"}},{"sampler":16,"target":{"node":6,"path":"translation"}},{"sampler":17,"target":{"node":6,"path":"rotation"}},{"sampler":18,"target":{"node":6,"path":"scale"}},{"sampler":19,"target":{"node":7,"path":"translation"}},{"sampler":20,"target":{"node":7,"path":"rotation"}},{"sampler":21,"target":{"node":7,"path":"scale"}},{"sampler":22,"target":{"node":8,"path":"translation"}},{"sampler":23,"target":{"node":8,"path":"rotation"}},{"sampler":24,"target":{"node":8,"path":"scale"}},{"sampler":25,"target":{"node":9,"path":"translation"}},{"sampler":26,"target":{"node":9,"path":"rotation"}},{"sampler":27,"target":{"node":9,"path":"scale"}},{"sampler":28,"target":{"node":10,"path":"translation"}},{"sampler":29,"target":{"node":10,"path":"rotation"}},{"sampler":30,"target":{"node":10,"path":"scale"}},{"sampler":31,"target":{"node":14,"path":"translation"}},{"sampler":32,"target":{"node":14,"path":"rotation"}},{"sampler":33,"target":{"node":14,"path":"scale"}},{"sampler":34,"target":{"node":15,"path":"translation"}},{"sampler":35,"target":{"node":15,"path":"rotation"}},{"sampler":36,"target":{"node":15,"path":"scale"}},{"sampler":37,"target":{"node":16,"path":"translation"}},{"sampler":38,"target":{"node":16,"path":"rotation"}},{"sampler":39,"target":{"node":16,"path":"scale"}},{"sampler":40,"target":{"node":17,"path":"translation"}},{"sampler":41,"target":{"node":17,"path":"rotation"}},{"sampler":42,"target":{"node":17,"path":"scale"}},{"sampler":43,"target":{"node":21,"path":"translation"}},{"sampler":44,"target":{"node":21,"path":"rotation"}},{"sampler":45,"target":{"node":21,"path":"scale"}},{"sampler":46,"target":{"node":22,"path":"translation"}},{"sampler":47,"target":{"node":22,"path":"rotation"}},{"sampler":48,"target":{"node":22,"path":"scale"}},{"sampler":49,"target":{"node":23,"path":"translation"}},{"sampler":50,"target":{"node":23,"path":"rotation"}},{"sampler":51,"target":{"node":23,"path":"scale"}},{"sampler":52,"target":{"node":24,"path":"translation"}},{"sampler":53,"target":{"node":24,"path":"rotation"}},{"sampler":54,"target":{"node":24,"path":"scale"}},{"sampler":55,"target":{"node":25,"path":"translation"}},{"sampler":56,"target":{"node":25,"path":"rotation"}},{"sampler":57,"target":{"node":25,"path":"scale"}},{"sampler":58,"target":{"node":26,"path":"translation"}},{"sampler":59,"target":{"node":26,"path":"rotation"}},{"sampler":60,"target":{"node":26,"path":"scale"}},{"sampler":61,"target":{"node":27,"path":"translation"}},{"sampler":62,"target":{"node":27,"path":"rotation"}},{"sampler":63,"target":{"node":27,"path":"scale"}},{"sampler":64,"target":{"node":28,"path":"translation"}},{"sampler":65,"target":{"node":28,"path":"rotation"}},{"sampler":66,"target":{"node":28,"path":"scale"}}],"samplers":[{"input":6,"output":7},{"input":8,"output":9},{"input":8,"output":10},{"input":8,"output":11},{"input":12,"output":13},{"input":12,"output":14},{"input":12,"output":15},{"input":16,"output":17},{"input":16,"output":18},{"input":16,"output":19},{"input":20,"output":21},{"input":20,"output":22},{"input":20,"output":23},{"input":24,"output":25},{"input":24,"output":26},{"input":24,"output":27},{"input":28,"output":29},{"input":28,"output":30},{"input":28,"output":31},{"input":32,"output":33},{"input":32,"output":34},{"input":32,"output":35},{"input":36,"output":37},{"input":36,"output":38},{"input":36,"output":39},{"input":40,"output":41},{"input":40,"output":42},{"input":40,"output":43},{"input":44,"output":45},{"input":44,"output":46},{"input":44,"output":47},{"input":48,"output":49},{"input":48,"output":50},{"input":48,"output":51},{"input":52,"output":53},{"input":52,"output":54},{"input":52,"output":55},{"input":56,"output":57},{"input":56,"output":58},{"input":56,"output":59},{"input":60,"output":61},{"input":60,"output":62},{"input":60,"output":63},{"input":64,"output":65},{"input":64,"output":66},{"input":64,"output":67},{"input":68,"output":69},{"input":68,"output":70},{"input":68,"output":71},{"input":72,"output":73},{"input":72,"output":74},{"input":72,"output":75},{"input":76,"output":77},{"input":76,"output":78},{"input":76,"output":79},{"input":80,"output":81},{"input":80,"output":82},{"input":80,"output":83},{"input":84,"output":85},{"input":84,"output":86},{"input":84,"output":87},{"input":88,"output":89},{"input":88,"output":90},{"input":88,"output":91},{"input":92,"output":93},{"input":92,"output":94},{"input":92,"output":95}],"name":"All Animations"}],"skins":[{"inverseBindMatrices":5,"skeleton":1,"joints":[1,2,3,4,5,6,7,8,9,10,11,12,13,14,15,16,17,18,19,20,21,22,23,24,25,26,27,28],"name":"skeleton #0"}]}