{
    "asset" : {
        "generator" : "Khronos glTF Blender I/O v1.1.46",
        "version" : "2.0"
    },
    "scene" : 0,
    "scenes" : [
        {
            "name" : "Scene",
            "nodes" : [
                0
            ]
        }
    ],
    "nodes" : [
        {
            "mesh" : 0,
            "name" : "fem_head_",
            "rotation" : [
                0.7071068286895752,
                0,
                0,
                0.7071067094802856
            ],
            "scale" : [
                1.263612151145935,
                1.263612151145935,
                1.263612151145935
            ],
            "translation" : [
                0.00017185999604407698,
                0.20646178722381592,
                0.041668180376291275
            ]
        }
    ],
    "materials" : [
        {
            "doubleSided" : true,
            "emissiveFactor" : [
                0,
                0,
                0
            ],
            "name" : "Torso",
            "pbrMetallicRoughness" : {
                "baseColorFactor" : [
                    0.800000011920929,
                    0.800000011920929,
                    0.800000011920929,
                    1
                ],
                "metallicFactor" : 0,
                "roughnessFactor" : 0.5
            }
        },
        {
            "doubleSided" : true,
            "emissiveFactor" : [
                0,
                0,
                0
            ],
            "name" : "Face",
            "pbrMetallicRoughness" : {
                "baseColorFactor" : [
                    0.800000011920929,
                    0.800000011920929,
                    0.800000011920929,
                    1
                ],
                "metallicFactor" : 0,
                "roughnessFactor" : 0.5
            }
        },
        {
            "doubleSided" : true,
            "emissiveFactor" : [
                0,
                0,
                0
            ],
            "name" : "Ears",
            "pbrMetallicRoughness" : {
                "baseColorFactor" : [
                    0.800000011920929,
                    0.800000011920929,
                    0.800000011920929,
                    1
                ],
                "metallicFactor" : 0,
                "roughnessFactor" : 0.5
            }
        },
        {
            "doubleSided" : true,
            "emissiveFactor" : [
                0,
                0,
                0
            ],
            "name" : "Lips",
            "pbrMetallicRoughness" : {
                "baseColorFactor" : [
                    0.800000011920929,
                    0.800000011920929,
                    0.800000011920929,
                    1
                ],
                "metallicFactor" : 0,
                "roughnessFactor" : 0.5
            }
        }
    ],
    "meshes" : [
        {
            "name" : "fem_head_",
            "primitives" : [
                {
                    "attributes" : {
                        "POSITION" : 0,
                        "NORMAL" : 1,
                        "TEXCOORD_0" : 2
                    },
                    "indices" : 3,
                    "material" : 0
                },
                {
                    "attributes" : {
                        "POSITION" : 4,
                        "NORMAL" : 5,
                        "TEXCOORD_0" : 6
                    },
                    "indices" : 7,
                    "material" : 1
                },
                {
                    "attributes" : {
                        "POSITION" : 8,
                        "NORMAL" : 9,
                        "TEXCOORD_0" : 10
                    },
                    "indices" : 11,
                    "material" : 2
                },
                {
                    "attributes" : {
                        "POSITION" : 12,
                        "NORMAL" : 13,
                        "TEXCOORD_0" : 14
                    },
                    "indices" : 15,
                    "material" : 3
                }
            ]
        }
    ],
    "accessors" : [
        {
            "bufferView" : 0,
            "componentType" : 5126,
            "count" : 2331,
            "max" : [
                0.07795201987028122,
                -0.002409268170595169,
                0.15321040153503418
            ],
            "min" : [
                -0.07822404056787491,
                -0.1446261703968048,
                -0.1437084674835205
            ],
            "type" : "VEC3"
        },
        {
            "bufferView" : 1,
            "componentType" : 5126,
            "count" : 2331,
            "type" : "VEC3"
        },
        {
            "bufferView" : 2,
            "componentType" : 5126,
            "count" : 2331,
            "type" : "VEC2"
        },
        {
            "bufferView" : 3,
            "componentType" : 5123,
            "count" : 12816,
            "type" : "SCALAR"
        },
        {
            "bufferView" : 4,
            "componentType" : 5126,
            "count" : 6146,
            "max" : [
                0.07769866287708282,
                0.08085709810256958,
                0.0898362398147583
            ],
            "min" : [
                -0.07753236591815948,
                -0.05396687984466553,
                -0.1368166208267212
            ],
            "type" : "VEC3"
        },
        {
            "bufferView" : 5,
            "componentType" : 5126,
            "count" : 6146,
            "type" : "VEC3"
        },
        {
            "bufferView" : 6,
            "componentType" : 5126,
            "count" : 6146,
            "type" : "VEC2"
        },
        {
            "bufferView" : 7,
            "componentType" : 5123,
            "count" : 35616,
            "type" : "SCALAR"
        },
        {
            "bufferView" : 8,
            "componentType" : 5126,
            "count" : 1804,
            "max" : [
                0.0906485840678215,
                -0.0354548916220665,
                0.021858930587768555
            ],
            "min" : [
                -0.09092060476541519,
                -0.07776224613189697,
                -0.0405120849609375
            ],
            "type" : "VEC3"
        },
        {
            "bufferView" : 9,
            "componentType" : 5126,
            "count" : 1804,
            "type" : "VEC3"
        },
        {
            "bufferView" : 10,
            "componentType" : 5126,
            "count" : 1804,
            "type" : "VEC2"
        },
        {
            "bufferView" : 11,
            "componentType" : 5123,
            "count" : 10416,
            "type" : "SCALAR"
        },
        {
            "bufferView" : 12,
            "componentType" : 5126,
            "count" : 757,
            "max" : [
                0.02704358845949173,
                0.06581825017929077,
                0.05051004886627197
            ],
            "min" : [
                -0.026877278462052345,
                0.04120016470551491,
                0.029648780822753906
            ],
            "type" : "VEC3"
        },
        {
            "bufferView" : 13,
            "componentType" : 5126,
            "count" : 757,
            "type" : "VEC3"
        },
        {
            "bufferView" : 14,
            "componentType" : 5126,
            "count" : 757,
            "type" : "VEC2"
        },
        {
            "bufferView" : 15,
            "componentType" : 5123,
            "count" : 4080,
            "type" : "SCALAR"
        }
    ],
    "bufferViews" : [
        {
            "buffer" : 0,
            "byteLength" : 27972,
            "byteOffset" : 0
        },
        {
            "buffer" : 0,
            "byteLength" : 27972,
            "byteOffset" : 27972
        },
        {
            "buffer" : 0,
            "byteLength" : 18648,
            "byteOffset" : 55944
        },
        {
            "buffer" : 0,
            "byteLength" : 25632,
            "byteOffset" : 74592
        },
        {
            "buffer" : 0,
            "byteLength" : 73752,
            "byteOffset" : 100224
        },
        {
            "buffer" : 0,
            "byteLength" : 73752,
            "byteOffset" : 173976
        },
        {
            "buffer" : 0,
            "byteLength" : 49168,
            "byteOffset" : 247728
        },
        {
            "buffer" : 0,
            "byteLength" : 71232,
            "byteOffset" : 296896
        },
        {
            "buffer" : 0,
            "byteLength" : 21648,
            "byteOffset" : 368128
        },
        {
            "buffer" : 0,
            "byteLength" : 21648,
            "byteOffset" : 389776
        },
        {
            "buffer" : 0,
            "byteLength" : 14432,
            "byteOffset" : 411424
        },
        {
            "buffer" : 0,
            "byteLength" : 20832,
            "byteOffset" : 425856
        },
        {
            "buffer" : 0,
            "byteLength" : 9084,
            "byteOffset" : 446688
        },
        {
            "buffer" : 0,
            "byteLength" : 9084,
            "byteOffset" : 455772
        },
        {
            "buffer" : 0,
            "byteLength" : 6056,
            "byteOffset" : 464856
        },
        {
            "buffer" : 0,
            "byteLength" : 8160,
            "byteOffset" : 470912
        }
    ],
    "buffers" : [
        {
            "byteLength" : 479072,
            "uri" : "cabezaBien.bin"
        }
    ]
}
